<svg width="400" height="400" viewBox="0 0 400 400" fill="none" xmlns="http://www.w3.org/2000/svg">
<path d="M200 0C200 0 100 150 100 250C100 332.843 144.772 400 200 400C255.228 400 300 332.843 300 250C300 150 200 0 200 0Z" fill="currentColor" opacity="0.1"/>
<path d="M50 100C50 100 0 200 0 250C0 291.421 22.3858 325 50 325C77.6142 325 100 291.421 100 250C100 200 50 100 50 100Z" fill="currentColor" opacity="0.1"/>
<path d="M350 100C350 100 300 200 300 250C300 291.421 322.386 325 350 325C377.614 325 400 291.421 400 250C400 200 350 100 350 100Z" fill="currentColor" opacity="0.1"/>
</svg>
